<?xml version="1.0" encoding="UTF-8"?>
<svg version="1.1" xmlns="http://www.w3.org/2000/svg" width="1024" height="1024">
<path d="M0 0 C337.92 0 675.84 0 1024 0 C1024 337.92 1024 675.84 1024 1024 C686.08 1024 348.16 1024 0 1024 C0 686.08 0 348.16 0 0 Z " fill="#F9F9F5" transform="translate(0,0)"/>
<path d="M0 0 C22.30941106 -0.4411969 22.30941106 -0.4411969 31.859375 -0.53710938 C38.36266469 -0.60273419 44.86424216 -0.6801422 51.36621094 -0.82983398 C56.61188541 -0.94983935 61.85572323 -1.01522392 67.10266495 -1.04364967 C69.09869418 -1.06389061 71.09462885 -1.10342079 73.08987045 -1.16303062 C89.51582039 -1.63401025 89.51582039 -1.63401025 94.35870361 2.32870483 C96.91065502 5.09630959 98.95296394 7.84746249 101 11 C102.46279176 12.84642504 103.93995626 14.68164693 105.4375 16.5 C106.52998047 17.85544922 106.52998047 17.85544922 107.64453125 19.23828125 C110.95676683 23.12178134 114.55869863 26.65802285 118.2265625 30.19921875 C120.38018824 32.37407742 122.37093648 34.56008791 124.359375 36.87890625 C127.88073696 40.94507007 131.67254337 44.60773123 135.625 48.25 C136.31142578 48.89549805 136.99785156 49.54099609 137.70507812 50.20605469 C141.0357842 53.32609283 144.39507229 56.36211368 147.9296875 59.25 C148.53345215 59.75885742 149.1372168 60.26771484 149.75927734 60.79199219 C150.88064937 61.73123956 152.02334479 62.64587306 153.18994141 63.52832031 C154.71875 64.828125 154.71875 64.828125 157 68 C157 71.63 157 75.26 157 79 C130.93 79 104.86 79 78 79 C78 105.07 78 131.14 78 158 C104.07 158 130.14 158 157 158 C157 184.07 157 210.14 157 237 C183.07 237 209.14 237 236 237 C236 210.93 236 184.86 236 158 C246.27125 157.855625 256.5425 157.71125 267.125 157.5625 C270.33879395 157.49877197 273.55258789 157.43504395 276.86376953 157.36938477 C279.45342981 157.34891221 282.04311288 157.33108138 284.6328125 157.31640625 C285.94306396 157.28059448 287.25331543 157.24478271 288.60327148 157.20788574 C299.70374371 157.20064945 302.99989501 159.4999475 314 165 C314 188.76 314 212.52 314 237 C288.59 237 263.18 237 237 237 C237 263.73 237 290.46 237 318 C106.32 318 -24.36 318 -159 318 C-159 265.2 -159 212.4 -159 158 C-132.6 158 -106.2 158 -79 158 C-79 131.93 -79 105.86 -79 79 C-52.93 79 -26.86 79 0 79 C0 52.93 0 26.86 0 0 Z " fill="#F1F1F1" transform="translate(159,706)"/>
<path d="M0 0 C95.04754597 -0.04033135 95.04754597 -0.04033135 134.75 -0.04882812 C143.8372396 -0.05078593 152.92447919 -0.05280639 162.01171875 -0.05493164 C163.72007137 -0.05532726 163.72007137 -0.05532726 165.46293616 -0.05573088 C183.83786621 -0.06007749 202.21279312 -0.06795983 220.5877213 -0.0771528 C239.45221572 -0.08651182 258.31670851 -0.09206038 277.18120515 -0.09408849 C288.81698478 -0.09545904 300.45275554 -0.09978433 312.08853243 -0.10791647 C320.07291299 -0.11321166 328.05728898 -0.11479799 336.04167117 -0.11350138 C340.64481732 -0.11286234 345.247948 -0.11382632 349.85109138 -0.11920547 C354.07326364 -0.12410317 358.29541016 -0.1242972 362.51758365 -0.12089889 C364.03733867 -0.12047943 365.55709536 -0.12172114 367.07684715 -0.12488318 C369.16029918 -0.12896264 371.24366119 -0.1266934 373.3271122 -0.12304783 C374.47918368 -0.12342755 375.63125516 -0.12380727 376.8182379 -0.1241985 C382.88772296 0.05606544 388.9432698 0.56737641 395 1 C395 27.07 395 53.14 395 80 C369.26 80.33 343.52 80.66 317 81 C317 106.74 317 132.48 317 159 C343.07 159 369.14 159 396 159 C396 174.84 396 190.68 396 207 C389.7196875 207.0928125 389.7196875 207.0928125 383.3125 207.1875 C360.65105339 207.84360736 342.96002073 213.59905363 323.3671875 224.73828125 C321 226 321 226 316 228 C316 205.23 316 182.46 316 159 C289.93 159 263.86 159 237 159 C237 185.07 237 211.14 237 238 C211.26 238 185.52 238 159 238 C159 211.93 159 185.86 159 159 C132.93 159 106.86 159 80 159 C80 185.07 80 211.14 80 238 C53.6 238 27.2 238 0 238 C0 159.46 0 80.92 0 0 Z " fill="#E0E0E0" transform="translate(0,0)"/>
<path d="M0 0 C10.43625 -0.020625 20.8725 -0.04125 31.625 -0.0625 C34.89100098 -0.071604 38.15700195 -0.08070801 41.52197266 -0.09008789 C44.15266885 -0.09301247 46.78336551 -0.09555974 49.4140625 -0.09765625 C50.07659027 -0.10026962 50.73911804 -0.102883 51.42172241 -0.10557556 C53.42908521 -0.11308116 55.43647083 -0.11334133 57.44384766 -0.11352539 C58.56747711 -0.115746 59.69110657 -0.11796661 60.8487854 -0.12025452 C66.9081607 0.05527658 72.95348795 0.56810628 79 1 C79 27.07 79 53.14 79 80 C53.26 80.33 27.52 80.66 1 81 C1 106.74 1 132.48 1 159 C27.07 159 53.14 159 80 159 C80 174.84 80 190.68 80 207 C73.7196875 207.0928125 73.7196875 207.0928125 67.3125 207.1875 C44.65105339 207.84360736 26.96002073 213.59905363 7.3671875 224.73828125 C5 226 5 226 0 228 C0 205.23 0 182.46 0 159 C-26.07 159 -52.14 159 -79 159 C-79 132.93 -79 106.86 -79 80 C-52.93 80 -26.86 80 0 80 C0 53.6 0 27.2 0 0 Z " fill="#DFDFDF" transform="translate(316,0)"/>
<path d="M0 0 C10.27125 -0.144375 20.5425 -0.28875 31.125 -0.4375 C34.33879395 -0.50122803 37.55258789 -0.56495605 40.86376953 -0.63061523 C43.45342981 -0.65108779 46.04311288 -0.66891862 48.6328125 -0.68359375 C49.94306396 -0.71940552 51.25331543 -0.75521729 52.60327148 -0.79211426 C63.70374371 -0.79935055 66.99989501 1.4999475 78 7 C78 30.76 78 54.52 78 79 C52.59 79 27.18 79 1 79 C1 105.73 1 132.46 1 160 C-25.4 160 -51.8 160 -79 160 C-79 133.27 -79 106.54 -79 79 C-52.93 79 -26.86 79 0 79 C0 52.93 0 26.86 0 0 Z " fill="#E0E0E0" transform="translate(395,864)"/>
<path d="M0 0 C51.48 0 102.96 0 156 0 C156 26.4 156 52.8 156 80 C104.52 80 53.04 80 0 80 C0 53.6 0 27.2 0 0 Z " fill="#FEFEFE" transform="translate(788,0)"/>
<path d="M0 0 C51.48 0 102.96 0 156 0 C156 26.4 156 52.8 156 80 C104.52 80 53.04 80 0 80 C0 53.6 0 27.2 0 0 Z " fill="#FEFEFE" transform="translate(396,0)"/>
<path d="M0 0 C26.4 0 52.8 0 80 0 C80 51.15 80 102.3 80 155 C53.6 155 27.2 155 0 155 C0 103.85 0 52.7 0 0 Z " fill="#E0E0E0" transform="translate(0,472)"/>
<path d="M0 0 C25.74 0 51.48 0 78 0 C78.12538376 13.90416288 78.2507449 27.80832165 78.37283897 41.71251297 C78.43852884 49.19018678 78.50472015 56.66785491 78.57275391 64.14550781 C78.63260826 70.72678251 78.69074081 77.30807062 78.74781799 83.88936996 C78.76955873 86.3643635 78.79185706 88.83935222 78.81480408 91.31433487 C79.01098843 112.54447688 79 133.76719692 79 155 C52.93 155 26.86 155 0 155 C0 103.85 0 52.7 0 0 Z " fill="#FDFEFE" transform="translate(80,472)"/>
<path d="M0 0 C26.07 0 52.14 0 79 0 C79 29.85299273 79 29.85299273 75.875 38.875 C75.56022705 39.88546387 75.2454541 40.89592773 74.92114258 41.93701172 C74.28297633 43.97895136 73.63048552 46.01648009 72.96240234 48.04882812 C71.72295261 51.84955578 70.59029697 55.67803778 69.45947266 59.51220703 C68.54645328 62.60238202 67.60894749 65.68473063 66.66674805 68.76611328 C65.75046707 71.83604038 64.88013821 74.91951628 64 78 C43.21 78 22.42 78 1 78 C1 103.41 1 128.82 1 155 C13.21 155 25.42 155 38 155 C36.80054982 160.99725089 35.61970789 166.80263002 34.0625 172.6875 C33.74410156 173.90824219 33.42570313 175.12898437 33.09765625 176.38671875 C31.97840183 180.07109719 30.52243523 183.46577535 29 187 C28.07722929 189.70899353 27.2538701 192.44480551 26.4375 195.1875 C23.95356218 203.51599741 23.95356218 203.51599741 22 207 C22.66 207 23.32 207 24 207 C24.24492188 206.43539062 24.48984375 205.87078125 24.7421875 205.2890625 C26.226895 202.58707928 28.01966335 200.62705 30.125 198.375 C33.88695732 194.27159114 37.40418431 190.05812074 40.84375 185.68359375 C43.73424619 182.08618273 46.75768924 178.6047321 49.7902832 175.12695312 C52.28006886 172.21970039 54.5200555 169.29131042 56.57421875 166.05859375 C62.75380436 156.38462828 62.75380436 156.38462828 66.84765625 155.12109375 C69.38998466 155.12466946 71.54964134 155.34309534 74 156 C62.46316431 176.62451073 49.9026077 196.34642281 34.37109375 214.2265625 C32.34767101 216.59333375 30.46050228 218.98727678 28.625 221.5 C26.33373651 224.63402707 23.82445145 227.32420389 21 230 C20.47148438 230.70125 19.94296875 231.4025 19.3984375 232.125 C15.82674934 234.91719921 12.64431267 234.43947285 8.25 234.25 C7.45722656 234.23195313 6.66445313 234.21390625 5.84765625 234.1953125 C3.89791652 234.14833082 1.94880122 234.07659044 0 234 C0 232.35 0 230.7 0 229 C0.66 228.67 1.32 228.34 2 228 C3.24512439 220.63301403 3.21881321 213.19283885 3.24023438 205.7355957 C3.24993292 203.70156824 3.28104835 201.66855718 3.3125 199.63476562 C3.34132663 192.25875094 2.68932015 185.9138021 0.67236328 178.8293457 C-0.4418949 174.14047932 -0.3211857 169.54211822 -0.1875 164.75 C-0.17396484 163.80253906 -0.16042969 162.85507812 -0.14648438 161.87890625 C-0.11173262 159.58529073 -0.06283482 157.2929875 0 155 C-2.31 155 -4.62 155 -7 155 C-7.474375 153.9275 -7.94875 152.855 -8.4375 151.75 C-11.77217462 145.03266983 -16.5663745 138.47007588 -21.83984375 133.140625 C-23.33934346 130.37387132 -23.18197317 128.19590638 -22.65869141 125.13623047 C-21.4617144 121.25426278 -19.1156252 118.269753 -16.6875 115.0625 C-12.71967489 109.5674174 -9.31544466 104.41300123 -7 98 C-6.59394531 97.06220703 -6.59394531 97.06220703 -6.1796875 96.10546875 C-3.73394004 90.27604154 -2.88271818 84.23095184 -2 78 C-1.34 78 -0.68 78 0 78 C0 52.26 0 26.52 0 0 Z " fill="#DFDFDF" transform="translate(630,472)"/>
<path d="M0 0 C26.4 0 52.8 0 80 0 C80 26.73 80 53.46 80 81 C53.6 81 27.2 81 0 81 C0 54.27 0 27.54 0 0 Z " fill="#E0E0E0" transform="translate(944,943)"/>
<path d="M0 0 C26.4 0 52.8 0 80 0 C80 26.73 80 53.46 80 81 C53.6 81 27.2 81 0 81 C0 54.27 0 27.54 0 0 Z " fill="#FDFEFE" transform="translate(0,943)"/>
<path d="M0 0 C26.4 0 52.8 0 80 0 C80 26.4 80 52.8 80 80 C53.6 80 27.2 80 0 80 C0 53.6 0 27.2 0 0 Z " fill="#E0E0E0" transform="translate(944,0)"/>
<path d="M0 0 C26.4 0 52.8 0 80 0 C80 26.4 80 52.8 80 80 C53.6 80 27.2 80 0 80 C0 53.6 0 27.2 0 0 Z " fill="#E0E0E0" transform="translate(0,0)"/>
<path d="M0 0 C26.07 0 52.14 0 79 0 C79 26.73 79 53.46 79 81 C52.93 81 26.86 81 0 81 C0 54.27 0 27.54 0 0 Z " fill="#FDFDFD" transform="translate(709,943)"/>
<path d="M0 0 C26.07 0 52.14 0 79 0 C79 26.73 79 53.46 79 81 C52.93 81 26.86 81 0 81 C0 54.27 0 27.54 0 0 Z " fill="#FDFEFE" transform="translate(237,943)"/>
<path d="M0 0 C26.07 0 52.14 0 79 0 C79 26.73 79 53.46 79 81 C52.93 81 26.86 81 0 81 C0 54.27 0 27.54 0 0 Z " fill="#E1E1E1" transform="translate(80,943)"/>
<path d="M0 0 C26.4 0 52.8 0 80 0 C80 26.07 80 52.14 80 79 C53.6 79 27.2 79 0 79 C0 52.93 0 26.86 0 0 Z " fill="#FDFEFE" transform="translate(944,864)"/>
<path d="M0 0 C26.4 0 52.8 0 80 0 C80 26.07 80 52.14 80 79 C53.6 79 27.2 79 0 79 C0 52.93 0 26.86 0 0 Z " fill="#E0E0E0" transform="translate(0,864)"/>
<path d="M0 0 C26.4 0 52.8 0 80 0 C80 26.07 80 52.14 80 79 C53.6 79 27.2 79 0 79 C0 52.93 0 26.86 0 0 Z " fill="#DFDFDF" transform="translate(944,785)"/>
<path d="M0 0 C26.4 0 52.8 0 80 0 C80 26.07 80 52.14 80 79 C53.6 79 27.2 79 0 79 C0 52.93 0 26.86 0 0 Z " fill="#FEFEFE" transform="translate(0,785)"/>
<path d="M0 0 C26.4 0 52.8 0 80 0 C80 26.07 80 52.14 80 79 C53.6 79 27.2 79 0 79 C0 52.93 0 26.86 0 0 Z " fill="#DFDFDF" transform="translate(0,706)"/>
<path d="M0 0 C26.4 0 52.8 0 80 0 C80 26.07 80 52.14 80 79 C53.6 79 27.2 79 0 79 C0 52.93 0 26.86 0 0 Z " fill="#FDFEFE" transform="translate(944,706)"/>
<path d="M0 0 C26.4 0 52.8 0 80 0 C80 26.07 80 52.14 80 79 C53.6 79 27.2 79 0 79 C0 52.93 0 26.86 0 0 Z " fill="#E0E0E0" transform="translate(944,159)"/>
<path d="M0 0 C26.4 0 52.8 0 80 0 C80 26.07 80 52.14 80 79 C53.6 79 27.2 79 0 79 C0 52.93 0 26.86 0 0 Z " fill="#E0E0E0" transform="translate(0,159)"/>
<path d="M0 0 C26.4 0 52.8 0 80 0 C80 26.07 80 52.14 80 79 C53.6 79 27.2 79 0 79 C0 52.93 0 26.86 0 0 Z " fill="#FDFEFE" transform="translate(944,80)"/>
<path d="M0 0 C26.4 0 52.8 0 80 0 C80 26.07 80 52.14 80 79 C53.6 79 27.2 79 0 79 C0 52.93 0 26.86 0 0 Z " fill="#FDFDFE" transform="translate(0,80)"/>
<path d="M0 0 C26.07 0 52.14 0 79 0 C79 26.4 79 52.8 79 80 C52.93 80 26.86 80 0 80 C0 53.6 0 27.2 0 0 Z " fill="#DFDFDF" transform="translate(709,0)"/>
<path d="M0 0 C26.07 0 52.14 0 79 0 C79 26.4 79 52.8 79 80 C52.93 80 26.86 80 0 80 C0 53.6 0 27.2 0 0 Z " fill="#FEFEFE" transform="translate(630,0)"/>
<path d="M0 0 C26.07 0 52.14 0 79 0 C79 26.4 79 52.8 79 80 C52.93 80 26.86 80 0 80 C0 53.6 0 27.2 0 0 Z " fill="#FEFEFE" transform="translate(237,0)"/>
<path d="M0 0 C26.07 0 52.14 0 79 0 C79 26.4 79 52.8 79 80 C52.93 80 26.86 80 0 80 C0 53.6 0 27.2 0 0 Z " fill="#FEFEFE" transform="translate(80,0)"/>
<path d="M0 0 C25.74 0 51.48 0 78 0 C78 26.73 78 53.46 78 81 C52.26 81 26.52 81 0 81 C0 54.27 0 27.54 0 0 Z " fill="#FDFEFE" transform="translate(866,943)"/>
<path d="M0 0 C25.74 0 51.48 0 78 0 C78 26.73 78 53.46 78 81 C52.26 81 26.52 81 0 81 C0 54.27 0 27.54 0 0 Z " fill="#E0E0E0" transform="translate(788,943)"/>
<path d="M0 0 C25.74 0 51.48 0 78 0 C78 26.73 78 53.46 78 81 C52.26 81 26.52 81 0 81 C0 54.27 0 27.54 0 0 Z " fill="#E0E0E0" transform="translate(631,943)"/>
<path d="M0 0 C25.74 0 51.48 0 78 0 C78 26.73 78 53.46 78 81 C52.26 81 26.52 81 0 81 C0 54.27 0 27.54 0 0 Z " fill="#E0E0E0" transform="translate(474,943)"/>
<path d="M0 0 C26.07 0 52.14 0 79 0 C79 26.07 79 52.14 79 79 C52.93 79 26.86 79 0 79 C0 52.93 0 26.86 0 0 Z " fill="#E0E0E0" transform="translate(709,864)"/>
<path d="M0 0 C26.07 0 52.14 0 79 0 C79 26.07 79 52.14 79 79 C52.93 79 26.86 79 0 79 C0 52.93 0 26.86 0 0 Z " fill="#E0E0E0" transform="translate(237,864)"/>
<path d="M0 0 C26.07 0 52.14 0 79 0 C79 26.07 79 52.14 79 79 C52.93 79 26.86 79 0 79 C0 52.93 0 26.86 0 0 Z " fill="#FDFEFE" transform="translate(80,864)"/>
<path d="M0 0 C26.07 0 52.14 0 79 0 C79 26.07 79 52.14 79 79 C52.93 79 26.86 79 0 79 C0 52.93 0 26.86 0 0 Z " fill="#FDFEFE" transform="translate(316,864)"/>
<path d="M0 0 C26.07 0 52.14 0 79 0 C79 26.07 79 52.14 79 79 C52.93 79 26.86 79 0 79 C0 52.93 0 26.86 0 0 Z " fill="#FEFEFE" transform="translate(237,785)"/>
<path d="M0 0 C26.07 0 52.14 0 79 0 C79 26.07 79 52.14 79 79 C52.93 79 26.86 79 0 79 C0 52.93 0 26.86 0 0 Z " fill="#FDFEFE" transform="translate(80,706)"/>
<path d="M0 0 C26.4 0 52.8 0 80 0 C80 25.74 80 51.48 80 78 C53.6 78 27.2 78 0 78 C0 52.26 0 26.52 0 0 Z " fill="#DFDFDF" transform="translate(944,628)"/>
<path d="M0 0 C26.4 0 52.8 0 80 0 C80 25.74 80 51.48 80 78 C53.6 78 27.2 78 0 78 C0 52.26 0 26.52 0 0 Z " fill="#FEFEFE" transform="translate(0,628)"/>
<path d="M0 0 C26.4 0 52.8 0 80 0 C80 25.74 80 51.48 80 78 C53.6 78 27.2 78 0 78 C0 52.26 0 26.52 0 0 Z " fill="#E0E0DF" transform="translate(944,472)"/>
<path d="M0 0 C26.4 0 52.8 0 80 0 C80 25.74 80 51.48 80 78 C53.6 78 27.2 78 0 78 C0 52.26 0 26.52 0 0 Z " fill="#FEFEFE" transform="translate(944,238)"/>
<path d="M0 0 C26.4 0 52.8 0 80 0 C80 25.74 80 51.48 80 78 C53.6 78 27.2 78 0 78 C0 52.26 0 26.52 0 0 Z " fill="#FEFEFE" transform="translate(0,238)"/>
<path d="M0 0 C25.74 0 51.48 0 78 0 C78 26.07 78 52.14 78 79 C26.52 79 -24.96 79 -78 79 C-78 78.67 -78 78.34 -78 78 C-52.26 78 -26.52 78 0 78 C0 52.26 0 26.52 0 0 Z " fill="#E0E0E0" transform="translate(866,80)"/>
<path d="M0 0 C25.74 0 51.48 0 78 0 C78 26.4 78 52.8 78 80 C52.26 80 26.52 80 0 80 C0 53.6 0 27.2 0 0 Z " fill="#DFDFDF" transform="translate(552,0)"/>
<path d="M0 0 C25.74 0 51.48 0 78 0 C78 26.4 78 52.8 78 80 C52.26 80 26.52 80 0 80 C0 53.6 0 27.2 0 0 Z " fill="#DFE0DF" transform="translate(159,0)"/>
<path d="M0 0 C1.07125154 0.01079432 1.07125154 0.01079432 2.16414452 0.02180672 C2.92762388 0.02156565 3.69110325 0.02132458 4.47771835 0.0210762 C6.95452883 0.02257163 9.43104008 0.03781465 11.90779686 0.053545 C13.43473223 0.05648473 14.96166962 0.0585256 16.48860741 0.05964851 C22.15701375 0.07014399 27.82537698 0.0980663 33.49373436 0.1238575 C46.15748436 0.1651075 58.82123436 0.2063575 71.86873436 0.2488575 C71.86873436 26.3188575 71.86873436 52.3888575 71.86873436 79.2488575 C45.79873436 79.2488575 19.72873436 79.2488575 -7.13126564 79.2488575 C-7.19314064 60.2532325 -7.19314064 60.2532325 -7.25626564 40.8738575 C-7.27447365 36.8721241 -7.29268166 32.8703907 -7.31144142 28.74739265 C-7.32047462 23.86873055 -7.32047462 23.86873055 -7.32215309 21.58635139 C-7.32522853 19.98892797 -7.33227141 18.39150924 -7.34241676 16.79411507 C-7.35700117 14.37741693 -7.35907951 11.96100303 -7.35831642 9.54426765 C-7.36551264 8.83009996 -7.37270885 8.11593227 -7.38012314 7.38012314 C-7.35423302 1.27842597 -6.10169717 0.02589011 0 0 Z " fill="#FDFDFE" transform="translate(716.1312656402588,784.751142501831)"/>
<path d="M0 0 C25.41 0 50.82 0 77 0 C77 26.73 77 53.46 77 81 C51.59 81 26.18 81 0 81 C0 54.27 0 27.54 0 0 Z " fill="#FEFEFE" transform="translate(396,943)"/>
<path d="M0 0 C0.71898972 -0.00175232 1.43797943 -0.00350464 2.17875671 -0.00531006 C4.55531223 -0.00971138 6.93179334 -0.00679694 9.30834961 -0.00341797 C10.95836908 -0.00409143 12.60838846 -0.00506181 14.25840759 -0.00631714 C17.71590113 -0.00779172 21.17336884 -0.00564696 24.63085938 -0.00097656 C29.0686476 0.00472505 33.5063754 0.00143748 37.94416142 -0.00454903 C41.35070758 -0.00815729 44.75723934 -0.0070149 48.16378593 -0.00442123 C49.80050094 -0.00375293 51.43721725 -0.00457703 53.07393074 -0.00690079 C55.35791631 -0.00943212 57.64180306 -0.0055801 59.92578125 0 C61.87744957 0.00119339 61.87744957 0.00119339 63.86854553 0.00241089 C66.89819336 0.12939453 66.89819336 0.12939453 68.89819336 1.12939453 C68.89819336 26.86939453 68.89819336 52.60939453 68.89819336 79.12939453 C42.82819336 79.12939453 16.75819336 79.12939453 -10.10180664 79.12939453 C-10.10180664 53.38939453 -10.10180664 27.64939453 -10.10180664 1.12939453 C-6.5567217 -0.05230045 -3.74279303 0.00228721 0 0 Z " fill="#FDFEFE" transform="translate(327.101806640625,79.87060546875)"/>
<path d="M0 0 C25.74 0 51.48 0 78 0 C78 26.07 78 52.14 78 79 C52.26 79 26.52 79 0 79 C0 52.93 0 26.86 0 0 Z " fill="#E0E0E0" transform="translate(866,864)"/>
<path d="M0 0 C25.74 0 51.48 0 78 0 C78 26.07 78 52.14 78 79 C52.26 79 26.52 79 0 79 C0 52.93 0 26.86 0 0 Z " fill="#FDFEFE" transform="translate(788,864)"/>
<path d="M0 0 C25.74 0 51.48 0 78 0 C78 26.07 78 52.14 78 79 C52.26 79 26.52 79 0 79 C0 52.93 0 26.86 0 0 Z " fill="#DFDFDF" transform="translate(788,785)"/>
<path d="M0 0 C25.74 0 51.48 0 78 0 C78 26.07 78 52.14 78 79 C52.26 79 26.52 79 0 79 C0 52.93 0 26.86 0 0 Z " fill="#FDFEFE" transform="translate(866,785)"/>
<path d="M0 0 C25.74 0 51.48 0 78 0 C78 26.07 78 52.14 78 79 C52.26 79 26.52 79 0 79 C0 52.93 0 26.86 0 0 Z " fill="#E0E0E0" transform="translate(80,785)"/>
<path d="M0 0 C25.74 0 51.48 0 78 0 C78 26.07 78 52.14 78 79 C52.26 79 26.52 79 0 79 C0 52.93 0 26.86 0 0 Z " fill="#DFDFDF" transform="translate(866,706)"/>
<path d="M0 0 C25.74 0 51.48 0 78 0 C78 26.07 78 52.14 78 79 C52.26 79 26.52 79 0 79 C0 52.93 0 26.86 0 0 Z " fill="#FDFDFE" transform="translate(788,706)"/>
<path d="M0 0 C25.74 0 51.48 0 78 0 C78 26.07 78 52.14 78 79 C52.26 79 26.52 79 0 79 C0 52.93 0 26.86 0 0 Z " fill="#FDFEFE" transform="translate(866,159)"/>
<path d="M0 0 C25.74 0 51.48 0 78 0 C78 26.07 78 52.14 78 79 C52.26 79 26.52 79 0 79 C0 52.93 0 26.86 0 0 Z " fill="#DFE0DF" transform="translate(159,159)"/>
<path d="M0 0 C25.74 0 51.48 0 78 0 C78 26.07 78 52.14 78 79 C52.26 79 26.52 79 0 79 C0 52.93 0 26.86 0 0 Z " fill="#FDFEFE" transform="translate(80,159)"/>
<path d="M0 0 C25.74 0 51.48 0 78 0 C78 26.07 78 52.14 78 79 C52.26 79 26.52 79 0 79 C0 52.93 0 26.86 0 0 Z " fill="#FDFEFE" transform="translate(159,80)"/>
<path d="M0 0 C25.74 0 51.48 0 78 0 C78 26.07 78 52.14 78 79 C52.26 79 26.52 79 0 79 C0 52.93 0 26.86 0 0 Z " fill="#DFDFDF" transform="translate(474,80)"/>
<path d="M0 0 C26.4 0 52.8 0 80 0 C80 25.41 80 50.82 80 77 C53.6 77 27.2 77 0 77 C0 51.59 0 26.18 0 0 Z " fill="#FEFEFE" transform="translate(944,550)"/>
<path d="M0 0 C26.4 0 52.8 0 80 0 C80 25.41 80 50.82 80 77 C53.6 77 27.2 77 0 77 C0 51.59 0 26.18 0 0 Z " fill="#FEFEFE" transform="translate(944,395)"/>
<path d="M0 0 C26.4 0 52.8 0 80 0 C80 25.41 80 50.82 80 77 C53.6 77 27.2 77 0 77 C0 51.59 0 26.18 0 0 Z " fill="#FDFEFE" transform="translate(0,395)"/>
<path d="M0 0 C26.4 0 52.8 0 80 0 C80 25.41 80 50.82 80 77 C53.6 77 27.2 77 0 77 C0 51.59 0 26.18 0 0 Z " fill="#DFDFDF" transform="translate(944,317)"/>
<path d="M0 0 C26.4 0 52.8 0 80 0 C80 25.41 80 50.82 80 77 C53.6 77 27.2 77 0 77 C0 51.59 0 26.18 0 0 Z " fill="#DFDFDF" transform="translate(0,317)"/>
<path d="M0 0 C25.74 0 51.48 0 78 0 C78 25.74 78 51.48 78 78 C52.26 78 26.52 78 0 78 C0 52.26 0 26.52 0 0 Z " fill="#FEFEFE" transform="translate(866,628)"/>
<path d="M0 0 C25.74 0 51.48 0 78 0 C78 25.74 78 51.48 78 78 C52.26 78 26.52 78 0 78 C0 52.26 0 26.52 0 0 Z " fill="#DFDFDF" transform="translate(80,628)"/>
<path d="M0 0 C25.74 0 51.48 0 78 0 C78 25.74 78 51.48 78 78 C52.26 78 26.52 78 0 78 C0 52.26 0 26.52 0 0 Z " fill="#DFDFDF" transform="translate(395,472)"/>
<path d="M0 0 C25.74 0 51.48 0 78 0 C78 25.74 78 51.48 78 78 C52.26 78 26.52 78 0 78 C0 52.26 0 26.52 0 0 Z " fill="#DFE0DF" transform="translate(866,238)"/>
<path d="M0 0 C25.74 0 51.48 0 78 0 C78 25.74 78 51.48 78 78 C52.26 78 26.52 78 0 78 C0 52.26 0 26.52 0 0 Z " fill="#FDFEFE" transform="translate(159,238)"/>
<path d="M0 0 C25.74 0 51.48 0 78 0 C78 25.74 78 51.48 78 78 C52.26 78 26.52 78 0 78 C0 52.26 0 26.52 0 0 Z " fill="#DFDFDF" transform="translate(80,238)"/>
<path d="M0 0 C0 25.74 0 51.48 0 78 C-25.74 78 -51.48 78 -78 78 C-78 52.59 -78 27.18 -78 1 C-65.8725 0.835 -53.745 0.67 -41.25 0.5 C-37.4230957 0.44779297 -33.59619141 0.39558594 -29.65332031 0.34179688 C-24.97412109 0.27832031 -24.97412109 0.27832031 -22.78240967 0.24865723 C-21.25425076 0.22792352 -19.7260933 0.20708282 -18.19793701 0.18615723 C-15.8809848 0.15445125 -13.56402818 0.12308655 -11.24707031 0.09179688 C-9.94135071 0.07403198 -8.6356311 0.05626709 -7.29034424 0.03796387 C-4.86035828 0.00992678 -2.43014769 0 0 0 Z " fill="#FDFDFE" transform="translate(944,472)"/>
<path d="M0 0 C25.74 0 51.48 0 78 0 C78 25.41 78 50.82 78 77 C52.26 77 26.52 77 0 77 C0 51.59 0 26.18 0 0 Z " fill="#DFDFDF" transform="translate(866,550)"/>
<path d="M0 0 C25.74 0 51.48 0 78 0 C78 25.41 78 50.82 78 77 C52.26 77 26.52 77 0 77 C0 51.59 0 26.18 0 0 Z " fill="#DFDFDF" transform="translate(866,395)"/>
<path d="M0 0 C25.74 0 51.48 0 78 0 C78 25.41 78 50.82 78 77 C52.26 77 26.52 77 0 77 C0 51.59 0 26.18 0 0 Z " fill="#DFDFDF" transform="translate(474,395)"/>
<path d="M0 0 C25.74 0 51.48 0 78 0 C78 25.41 78 50.82 78 77 C52.26 77 26.52 77 0 77 C0 51.59 0 26.18 0 0 Z " fill="#DFDFDF" transform="translate(80,395)"/>
<path d="M0 0 C25.74 0 51.48 0 78 0 C78 25.41 78 50.82 78 77 C52.26 77 26.52 77 0 77 C0 51.59 0 26.18 0 0 Z " fill="#FDFEFE" transform="translate(866,317)"/>
<path d="M0 0 C25.74 0 51.48 0 78 0 C78 25.41 78 50.82 78 77 C52.26 77 26.52 77 0 77 C0 51.59 0 26.18 0 0 Z " fill="#FEFEFE" transform="translate(80,317)"/>
<path d="M0 0 C0 26.07 0 52.14 0 79 C-25.74 79 -51.48 79 -78 79 C-78 62.83 -78 46.66 -78 30 C-74.04 28.35 -70.08 26.7 -66 25 C-62.96132756 23.54225849 -59.97575084 22.07229388 -57 20.5 C-56.21109375 20.08492187 -55.4221875 19.66984375 -54.609375 19.2421875 C-45.03222682 14.09221159 -36.01416217 8.06577996 -27 2 C-19.491031 -3.00597933 -9.02465758 0 0 0 Z " fill="#E0E0DF" transform="translate(630,864)"/>
<path d="M0 0 C25.74 0 51.48 0 78 0 C78 11.46116923 78 11.46116923 74.5 17.625 C73.76383036 19.00624801 73.0281682 20.38776659 72.29296875 21.76953125 C71.91317871 22.46643066 71.53338867 23.16333008 71.14208984 23.88134766 C69.28853232 27.31981969 67.55192821 30.81528551 65.8125 34.3125 C65.30577759 35.32546143 65.30577759 35.32546143 64.78881836 36.35888672 C62.57406721 40.79929107 60.4458286 45.26782275 58.42578125 49.80078125 C57.20768685 52.53398486 55.9726521 55.25817266 54.73046875 57.98046875 C53.9035596 59.79943997 53.07673747 61.61845075 52.25 63.4375 C51.8485376 64.3150293 51.4470752 65.19255859 51.03344727 66.09667969 C50.65631592 66.92973633 50.27918457 67.76279297 49.890625 68.62109375 C49.38063965 69.74149048 49.38063965 69.74149048 48.86035156 70.88452148 C47.83343185 73.26729638 47.83343185 73.26729638 47 77 C31.49 77 15.98 77 0 77 C0 51.59 0 26.18 0 0 Z " fill="#DFDFDF" transform="translate(159,317)"/>
<path d="M0 0 C26.07 0 52.14 0 79 0 C79 21.78 79 43.56 79 66 C72.34763948 64.89127325 72.34763948 64.89127325 69.1875 63.5625 C60.12239333 60.04801054 51.364527 59.58143863 41.6875 59.5625 C41.02991699 59.55977081 40.37233398 59.55704163 39.69482422 59.55422974 C28.64310802 59.54735428 18.5376578 60.94463841 8.04101562 64.42749023 C5.41139703 65.16510454 2.69395157 65.55100807 0 66 C0 44.22 0 22.44 0 0 Z " fill="#DFDFDF" transform="translate(630,80)"/>
<path d="M0 0 C16.01714318 0 16.01714318 0 21.5 5.375 C22.76949303 6.49518922 24.04168288 7.61232879 25.31640625 8.7265625 C26.24670654 9.56429199 26.24670654 9.56429199 27.19580078 10.41894531 C39.2231838 20.95877378 53.7130756 29.19456789 67 38 C70.96 40.64 74.92 43.28 79 46 C79 56.89 79 67.78 79 79 C52.93 79 26.86 79 0 79 C0 52.93 0 26.86 0 0 Z " fill="#DFDFDF" transform="translate(316,785)"/>
<path d="M0 0 C17.49 0 34.98 0 53 0 C53 5.61 53 11.22 53 17 C56.69139606 26.63364339 60.72029868 31.7126388 69.3125 37.0625 C72.93826505 41.02554552 72.93527513 44.30556863 73.5 49.53515625 C73.99461592 52.96269 74.89144368 55.7747642 76.125 59 C78 65 78 65 78 78 C57.87 78 37.74 78 17 78 C17 72.39 17 66.78 17 61 C16.19359079 57.45660589 15.49838742 54.80011907 14.125 51.5625 C13.82198975 50.77576904 13.51897949 49.98903809 13.20678711 49.1784668 C11.56122669 45.09171281 9.68326657 41.35194504 7.30859375 37.640625 C-1.83841509 23.22400225 0 19.89852738 0 0 Z " fill="#DFDFDF" transform="translate(474,238)"/>
<path d="M0 0 C11.22 0 22.44 0 34 0 C34 25.74 34 51.48 34 78 C8.26 78 -17.48 78 -44 78 C-44 72.28019645 -43.39887374 71.73789381 -39.875 67.5625 C-24.36154719 48.40599404 -12.79200077 26.06011923 -2 4 C-1.34 2.68 -0.68 1.36 0 0 Z " fill="#DFDFDF" transform="translate(832,628)"/>
<path d="M0 0 C13 0 13 0 16.140625 2.01953125 C17.18476563 3.40205078 17.18476563 3.40205078 18.25 4.8125 C19.05050781 5.81925781 19.85101563 6.82601562 20.67578125 7.86328125 C21.44277344 8.89839844 22.20976562 9.93351563 23 11 C24.46998705 12.84070182 25.9489775 14.6742547 27.4375 16.5 C28.52998047 17.85544922 28.52998047 17.85544922 29.64453125 19.23828125 C32.95676683 23.12178134 36.55869863 26.65802285 40.2265625 30.19921875 C42.38018824 32.37407742 44.37093648 34.56008791 46.359375 36.87890625 C49.88073696 40.94507007 53.67254337 44.60773123 57.625 48.25 C58.31142578 48.89549805 58.99785156 49.54099609 59.70507812 50.20605469 C63.0357842 53.32609283 66.39507229 56.36211368 69.9296875 59.25 C70.53345215 59.75885742 71.1372168 60.26771484 71.75927734 60.79199219 C72.88064937 61.73123956 74.02334479 62.64587306 75.18994141 63.52832031 C76.71875 64.828125 76.71875 64.828125 79 68 C79 71.63 79 75.26 79 79 C52.93 79 26.86 79 0 79 C0 52.93 0 26.86 0 0 Z " fill="#DFDFDF" transform="translate(237,706)"/>
<path d="M0 0 C0 25.41 0 50.82 0 77 C-26.07 77 -52.14 77 -79 77 C-79 71.06 -79 65.12 -79 59 C-75.63354566 56.06637551 -73.71775757 54.71726005 -69.87939453 52.97314453 C-65.99671707 50.96270645 -62.5674374 48.22127707 -59.0625 45.625 C-57.49111782 44.48014969 -55.91950664 43.33561364 -54.34765625 42.19140625 C-48.86438545 38.17128497 -43.40331901 34.12725843 -38 30 C-37.00299072 29.24082275 -37.00299072 29.24082275 -35.98583984 28.46630859 C-18.95082799 15.77805948 -18.95082799 15.77805948 -3.44116211 1.3347168 C-2 0 -2 0 0 0 Z " fill="#DFDFDF" transform="translate(709,787)"/>
<path d="M0 0 C0 26.07 0 52.14 0 79 C-25.41 79 -50.82 79 -77 79 C-73.12260093 74.47636775 -69.78089081 70.72613142 -65.42578125 66.85546875 C-59.36187318 61.39595511 -53.5554753 55.70865485 -47.7980957 49.9284668 C-46.17447771 48.29943428 -44.54550397 46.67589272 -42.91601562 45.05273438 C-37.91795033 40.05775103 -33.00809459 35.02932796 -28.41625977 29.65258789 C-26.47490939 27.38728869 -24.42009434 25.23405777 -22.375 23.0625 C-17.2850095 17.5353324 -12.82751228 11.602143 -8.46630859 5.48657227 C-7.68247803 4.42007446 -7.68247803 4.42007446 -6.8828125 3.33203125 C-6.42277832 2.68983643 -5.96274414 2.0476416 -5.48876953 1.38598633 C-4 0 -4 0 0 0 Z " fill="#DFDFDF" transform="translate(788,706)"/>
<path d="M0 0 C25.08 0 50.16 0 76 0 C76 24.09 76 48.18 76 73 C65.95031056 66.30020704 65.95031056 66.30020704 62 62.5625 C58.0495707 58.89689789 53.96477848 55.59187076 49.6171875 52.41015625 C49.08351563 51.94480469 48.54984375 51.47945312 48 51 C48 50.34 48 49.68 48 49 C47.40995178 48.73461426 46.81990356 48.46922852 46.2119751 48.19580078 C43.93479019 46.96474737 42.43578188 45.68937484 40.60839844 43.8671875 C39.9680365 43.23312988 39.32767456 42.59907227 38.66790771 41.94580078 C37.98859192 41.26243652 37.30927612 40.57907227 36.609375 39.875 C35.90476135 39.1722998 35.20014771 38.46959961 34.47418213 37.74560547 C32.98911647 36.26189896 31.50656619 34.77567108 30.02636719 33.28710938 C27.75155675 31.00156409 25.4662464 28.72690983 23.1796875 26.453125 C21.73894132 25.01105781 20.29881535 23.56837065 18.859375 22.125 C18.17196228 21.44163574 17.48454956 20.75827148 16.77630615 20.05419922 C16.14855286 19.4201416 15.52079956 18.78608398 14.87402344 18.1328125 C14.03940582 17.29580811 14.03940582 17.29580811 13.18792725 16.44189453 C12 15 12 15 12 13 C11.34 13 10.68 13 10 13 C8.4169795 11.26303438 6.90646276 9.45943503 5.4375 7.625 C4.63183594 6.62726562 3.82617188 5.62953125 2.99609375 4.6015625 C1 2 1 2 0 0 Z " fill="#DFDFDF" transform="translate(397,706)"/>
<path d="M0 0 C21.78 0 43.56 0 66 0 C63.19215097 2.80784903 60.38688465 5.60914252 57.546875 8.3828125 C50.21506922 15.58872149 43.28982603 22.84782325 37 31 C36.21496094 31.9796875 35.42992187 32.959375 34.62109375 33.96875 C27.77650703 42.57267997 21.83231654 51.68906798 16 61 C15.59410645 61.64662598 15.18821289 62.29325195 14.77001953 62.95947266 C10.09684898 70.3167683 10.09684898 70.3167683 6 78 C4.02 78 2.04 78 0 78 C0 52.26 0 26.52 0 0 Z " fill="#DFDFDF" transform="translate(237,238)"/>
<path d="M0 0 C19.47 0 38.94 0 59 0 C59 26.07 59 52.14 59 79 C55.04 79 51.08 79 47 79 C46.731875 78.06542969 46.46375 77.13085938 46.1875 76.16796875 C37.81332861 47.78007748 24.51032502 23.42424971 3 3 C2.01 2.01 1.02 1.02 0 0 Z " fill="#DFDFDF" transform="translate(729,159)"/>
<path d="M0 0 C7 0 7 0 9.94921875 2.44921875 C10.88204775 3.51135078 11.79458913 4.59159645 12.6875 5.6875 C13.37682617 6.48317383 13.37682617 6.48317383 14.08007812 7.29492188 C15.41222219 8.84370563 16.7057161 10.41957359 18 12 C19.06154297 13.21623047 19.06154297 13.21623047 20.14453125 14.45703125 C24.38106318 20.26330975 25.51730158 25.86223331 26.1328125 32.85546875 C26.21498016 33.67952713 26.29714783 34.50358551 26.38180542 35.35261536 C26.64024266 37.96333268 26.8832844 40.57518637 27.125 43.1875 C27.37679386 45.81015207 27.63180556 48.43245255 27.88961792 51.05451965 C28.04849145 52.68016725 28.20339026 54.30620954 28.35379028 55.93266296 C28.80216257 61.03951624 28.80216257 61.03951624 30 66 C33.42513307 67.71256654 37.239863 67.28217433 41 67 C42.67745682 66.36096883 44.34561387 65.69658363 46 65 C49.625 64.6875 49.625 64.6875 53 65 C56 68 56 68 58 77 C38.86 77 19.72 77 0 77 C0 51.59 0 26.18 0 0 Z " fill="#DFDFDE" transform="translate(552,317)"/>
<path d="M0 0 C16.5 0 33 0 50 0 C50 25.08 50 50.16 50 76 C46.8782149 72.8782149 44.34072607 70.33120474 41.80078125 66.8828125 C41.23657471 66.1189624 40.67236816 65.3551123 40.09106445 64.56811523 C39.50413818 63.76188721 38.91721191 62.95565918 38.3125 62.125 C37.38667114 60.85861694 37.38667114 60.85861694 36.44213867 59.56665039 C0 9.42616787 0 9.42616787 0 0 Z " fill="#DFDFDE" transform="translate(345,628)"/>
<path d="M0 0 C21.78 0 43.56 0 66 0 C64.447232 3.105536 63.09618409 5.32934454 60.99609375 8.00390625 C60.42052734 8.74447266 59.84496094 9.48503906 59.25195312 10.24804688 C58.03893405 11.79533171 56.82538933 13.3422046 55.61132812 14.88867188 C55.03705078 15.62794922 54.46277344 16.36722656 53.87109375 17.12890625 C53.34443115 17.79994385 52.81776855 18.47098145 52.27514648 19.16235352 C50.81741932 21.07935258 50.81741932 21.07935258 50 24 C51.2375 23.566875 52.475 23.13375 53.75 22.6875 C58.50360018 21.09796808 63.31125703 19.87817924 68.1796875 18.6953125 C71.48183791 17.88120894 74.73880874 16.96353378 78 16 C78.125 18.375 78.125 18.375 78 21 C75.64854762 23.35145238 73.32992132 24.05956156 70.23828125 25.15234375 C68.11044249 25.95817448 66.15579008 26.9160967 64.125 27.9375 C44.05801568 36.746566 21.15858171 35.28676997 0 32 C0 21.44 0 10.88 0 0 Z " fill="#DFDFDF" transform="translate(474,628)"/>
<path d="M0 0 C2.82432262 1.70149151 5.07957313 3.83379199 7.4375 6.125 C8.73663501 7.31572477 10.03871818 8.50324107 11.34375 9.6875 C11.96765625 10.25984375 12.5915625 10.8321875 13.234375 11.421875 C21.19624033 18.5382325 29.03730158 23.28011665 39.82421875 23.3984375 C42.6398056 23.01462072 42.6398056 23.01462072 47 20 C47 25.28 47 30.56 47 36 C21.26 36 -4.48 36 -31 36 C-28.78341139 22.70046831 -22.13391392 11.73933184 -13 2 C-12.401875 1.34 -11.80375 0.68 -11.1875 0 C-7.47818405 -1.69568729 -3.87092348 -1.03224626 0 0 Z " fill="#DEDEDD" transform="translate(348,436)"/>
<path d="M0 0 C0.78375 0.04125 1.5675 0.0825 2.375 0.125 C4.74433984 14.4891228 4.74433984 14.4891228 0.93359375 20.33691406 C-2.78172671 24.53143986 -7.06174477 28.02865509 -11.48535156 31.44873047 C-14.99126497 34.195376 -18.29027655 37.17508704 -21.625 40.125 C-35.49369066 52.14987629 -50.35191224 62.98093788 -65.4206543 73.44482422 C-69.19760901 76.07029669 -69.19760901 76.07029669 -72.625 79.125 C-73.615 79.125 -74.605 79.125 -75.625 79.125 C-76.63040248 72.47488688 -77.59456714 65.67393929 -75.625 59.125 C-71.92802803 54.14868766 -66.17818345 51.34874842 -60.84765625 48.40576172 C-57.64930375 46.56277433 -54.81267123 44.36661271 -51.9375 42.0625 C-50.90109375 41.25425781 -49.8646875 40.44601562 -48.796875 39.61328125 C-48.02053711 39.00347412 -48.02053711 39.00347412 -47.22851562 38.38134766 C-45.55918053 37.07343073 -43.88179598 35.77637625 -42.203125 34.48046875 C-32.81286021 27.20543505 -10.7144346 0.51021117 0 0 Z " fill="#DFDFDE" transform="translate(627.625,705.875)"/>
<path d="M0 0 C6.93 0 13.86 0 21 0 C20 10 20 10 19.4453125 14.96875 C18.71479867 23.12758684 18.85032115 31.31597645 18.875 39.5 C18.87588623 40.34161682 18.87677246 41.18323364 18.87768555 42.050354 C18.8925882 54.06848631 19.15837893 66.00689974 20 78 C13.4 78 6.8 78 0 78 C0 52.26 0 26.52 0 0 Z " fill="#DFDFDF" transform="translate(159,472)"/>
<path d="M0 0 C4.2498709 -0.08708752 8.49951239 -0.14042181 12.75 -0.1875 C13.9565625 -0.21263672 15.163125 -0.23777344 16.40625 -0.26367188 C17.56640625 -0.27333984 18.7265625 -0.28300781 19.921875 -0.29296875 C20.99018555 -0.3086792 22.05849609 -0.32438965 23.15917969 -0.34057617 C26.36044291 0.04321226 27.57970168 0.9613016 30 3 C32.29972825 2.78440048 33.70201233 2.18763167 35.64941406 0.96142578 C38.94643817 -0.38710776 42.10697949 -0.24687306 45.609375 -0.1953125 C46.33618469 -0.1924826 47.06299438 -0.18965271 47.81182861 -0.18673706 C50.12472251 -0.17557523 52.43722388 -0.15047851 54.75 -0.125 C56.32160898 -0.11496501 57.89322404 -0.10584006 59.46484375 -0.09765625 C63.31004622 -0.07564904 67.15495664 -0.04114715 71 0 C71 0.66 71 1.32 71 2 C69.51879883 3.09741211 69.51879883 3.09741211 67.45703125 4.27734375 C66.34038086 4.92413086 66.34038086 4.92413086 65.20117188 5.58398438 C64.41291016 6.03064453 63.62464844 6.47730469 62.8125 6.9375 C61.27730882 7.82155393 59.74215173 8.70566706 58.20703125 9.58984375 C55.81239779 10.96403983 53.41447502 12.33141479 51.01171875 13.69140625 C48.86647641 14.84545859 48.86647641 14.84545859 48 17 C48.63292969 17.23589844 49.26585937 17.47179687 49.91796875 17.71484375 C65.87467839 24.36852876 65.87467839 24.36852876 71 30 C73.10215747 35.51924471 72.07456222 41.3419656 71 47 C66.15423938 46.47086522 62.6240649 44.15499054 58.625 41.5625 C57.92600586 41.11729004 57.22701172 40.67208008 56.50683594 40.21337891 C49.84659864 35.95148617 43.26871211 31.5659887 36.71240234 27.14648438 C35.13539067 26.09064651 33.54671452 25.05228623 31.95703125 24.015625 C24.00021942 18.81846316 16.44559844 13.15296242 8.88427734 7.40478516 C6.95386017 5.96560138 4.99197285 4.58007651 3.01953125 3.19921875 C2.02308594 2.47347656 1.02664063 1.74773438 0 1 C0 0.67 0 0.34 0 0 Z " fill="#E0E0DF" transform="translate(481,785)"/>
<path d="M0 0 C17.16 0 34.32 0 52 0 C48.56468367 2.74825307 45.34970903 5.13795288 41.6875 7.5 C27.16250477 17.10610114 13.58764144 28.12988685 0 39 C0 26.13 0 13.26 0 0 Z " fill="#DFDFDE" transform="translate(552,159)"/>
<path d="M0 0 C0.33 0 0.66 0 1 0 C1.33 7.59 1.66 15.18 2 23 C13.51319606 17.24340197 18.6697386 12.61908649 23 1 C23.66 1 24.32 1 25 1 C25.51046875 2.17755859 25.51046875 2.17755859 26.03125 3.37890625 C31.05320028 14.26425062 36.78827324 19.82155554 48 24 C48 24.66 48 25.32 48 26 C47.21496094 26.3403125 46.42992187 26.680625 45.62109375 27.03125 C34.73574938 32.05320028 29.17844446 37.78827324 25 49 C24.34 49 23.68 49 23 49 C22.6596875 48.21496094 22.319375 47.42992187 21.96875 46.62109375 C17.12137889 36.11415903 12.6544692 31.56620109 2 27 C1.67 44.82 1.34 62.64 1 81 C0.67 81 0.34 81 0 81 C0 54.27 0 27.54 0 0 Z " fill="#EEEEEE" transform="translate(944,943)"/>
<path d="M0 0 C0.33 0 0.66 0 1 0 C1 51.81 1 103.62 1 157 C28.39 157 55.78 157 84 157 C84 157.33 84 157.66 84 158 C56.61 158 29.22 158 1 158 C1 183.41 1 208.82 1 235 C16.18 235 31.36 235 47 235 C47 235.33 47 235.66 47 236 C31.82 236 16.64 236 1 236 C1 287.15 1 338.3 1 391 C0.67 391 0.34 391 0 391 C0 339.85 0 288.7 0 236 C-52.14 236 -104.28 236 -158 236 C-158 235.67 -158 235.34 -158 235 C-105.86 235 -53.72 235 0 235 C0 209.59 0 184.18 0 158 C-52.14 158 -104.28 158 -158 158 C-158 157.67 -158 157.34 -158 157 C-105.86 157 -53.72 157 0 157 C0 105.19 0 53.38 0 0 Z " fill="#EFEFEF" transform="translate(158,159)"/>
<path d="M0 0 C0.33 0 0.66 0 1 0 C1 12.87 1 25.74 1 39 C-6.26 39 -13.52 39 -21 39 C-21 30 -21 30 -19 25 C-18.62875 24.05125 -18.2575 23.1025 -17.875 22.125 C-17.58625 21.42375 -17.2975 20.7225 -17 20 C-16.34 20 -15.68 20 -15 20 C-14.73703125 19.39414062 -14.4740625 18.78828125 -14.203125 18.1640625 C-12.92523958 15.86552833 -11.84603098 14.9139777 -9.75 13.375 C-5.79887205 10.16780828 -3.60169415 6.39558458 -1.1640625 1.9765625 C-0.58785156 0.99816406 -0.58785156 0.99816406 0 0 Z " fill="#DDDDDD" transform="translate(472,355)"/>
<path d="M0 0 C1.65 0 3.3 0 5 0 C5 25.41 5 50.82 5 77 C2.03 77 -0.94 77 -4 77 C-3.51179044 73.06972168 -3.01924602 69.14186384 -2.48681641 65.21728516 C-0.72877459 51.63122748 -0.55943613 38.05785552 -0.375 24.375 C-0.33671428 21.99998735 -0.29765689 19.62498701 -0.2578125 17.25 C-0.16299781 11.50011124 -0.07763542 5.75014507 0 0 Z " fill="#E0E0DE" transform="translate(861,473)"/>
<path d="M0 0 C2.76172357 2.76172357 2.90742773 5.79138977 3.5625 9.5 C4.3310885 14.38753774 4.3310885 14.38753774 6 19 C6.09880582 21.47182343 6.13984597 23.91476781 6.1328125 26.38671875 C6.13376923 27.12195267 6.13472595 27.85718658 6.13571167 28.61470032 C6.1363929 30.17404262 6.13454259 31.73338774 6.13037109 33.29272461 C6.12506008 35.66071094 6.13029811 38.02850427 6.13671875 40.39648438 C6.13605721 41.91406291 6.13477449 43.43164133 6.1328125 44.94921875 C6.13483673 45.65052414 6.13686096 46.35182953 6.13894653 47.0743866 C6.11827908 51.49170829 5.71296744 55.65458029 5 60 C3.35 60 1.7 60 0 60 C0 40.2 0 20.4 0 0 Z " fill="#DEDEDD" transform="translate(709,412)"/>
<path d="M0 0 C0.33 0 0.66 0 1 0 C1 12.87 1 25.74 1 39 C46.87 38.67 92.74 38.34 140 38 C140 38.66 140 39.32 140 40 C94.13 40 48.26 40 1 40 C1 65.41 1 90.82 1 117 C0.67 117 0.34 117 0 117 C0 91.59 0 66.18 0 40 C-7.26 40 -14.52 40 -22 40 C-22 39.67 -22 39.34 -22 39 C-14.74 39 -7.48 39 0 39 C0 26.13 0 13.26 0 0 Z " fill="#F0EFEF" transform="translate(473,355)"/>
<path d="M0 0 C0.66 0 1.32 0 2 0 C2 21.78 2 43.56 2 66 C1.34 65.67 0.68 65.34 0 65 C-0.51929924 62.49005365 -0.86493124 60.10566213 -1.125 57.5625 C-1.2084668 56.75353271 -1.29193359 55.94456543 -1.37792969 55.11108398 C-2.15972726 46.27278268 -2.22098598 37.42868207 -2.25 28.5625 C-2.25517639 27.83410919 -2.26035278 27.10571838 -2.26568604 26.35525513 C-2.31579317 17.39728323 -1.84795625 8.8051537 0 0 Z " fill="#E5E4E2" transform="translate(315,474)"/>
<path d="M0 0 C-0.65536286 5.63612057 -2.39697126 8.96949693 -5.875 13.375 C-8 15 -8 15 -10.75 14.75 C-11.4925 14.5025 -12.235 14.255 -13 14 C-13.91611687 6.2130066 -13.91611687 6.2130066 -11.734375 3.32421875 C-7.42396751 -0.22245149 -5.32937256 -1.26221982 0 0 Z " fill="#E0E0DD" transform="translate(444,367)"/>
<path d="M0 0 C5.2953712 -0.50432107 7.86704506 0.71242221 12 4 C14.4294516 7.6441774 14.16179575 9.71241272 14 14 C11.8125 14.75 11.8125 14.75 9 15 C4.34808738 12.2769292 2.28046764 8.72985881 0 4 C0 2.68 0 1.36 0 0 Z " fill="#E0E0DE" transform="translate(585,321)"/>
<path d="M0 0 C-11.52164009 6.51936219 -11.52164009 6.51936219 -17 8 C-17 6.35 -17 4.7 -17 3 C-14.92085336 2.29994051 -12.83648414 1.61537756 -10.75 0.9375 C-9.58984375 0.55464844 -8.4296875 0.17179688 -7.234375 -0.22265625 C-4.19922915 -0.95211763 -2.84296787 -1.11889082 0 0 Z " fill="#E7E6E2" transform="translate(569,705)"/>
</svg>
